<svg width="20" height="20" viewBox="0 0 20 20" fill="none" xmlns="http://www.w3.org/2000/svg">
<path d="M4.54915 15.8674C4.4668 15.8674 4.38631 15.843 4.31783 15.7972C4.24935 15.7515 4.19596 15.6865 4.16439 15.6104C4.13283 15.5344 4.12451 15.4507 4.14048 15.3699C4.15646 15.2891 4.19601 15.2149 4.25415 15.1566L15.1558 4.2549C15.2344 4.179 15.3396 4.13701 15.4489 4.13796C15.5581 4.1389 15.6627 4.18272 15.7399 4.25998C15.8172 4.33723 15.861 4.44174 15.8619 4.55099C15.8629 4.66023 15.8209 4.76549 15.745 4.84407L4.84415 15.7449C4.80545 15.7837 4.75947 15.8145 4.70885 15.8355C4.65823 15.8566 4.60396 15.8674 4.54915 15.8674Z" fill="#FFFBFB"/>
<path d="M15.4502 15.8676C15.3397 15.8677 15.2336 15.8239 15.1552 15.746L4.25441 4.84431C4.17852 4.76573 4.13652 4.66048 4.13747 4.55123C4.13842 4.44198 4.18224 4.33748 4.25949 4.26022C4.33674 4.18297 4.44125 4.13915 4.5505 4.1382C4.65975 4.13725 4.765 4.17925 4.84358 4.25515L15.7444 15.156C15.8028 15.2142 15.8426 15.2884 15.8587 15.3693C15.8749 15.4501 15.8667 15.534 15.8352 15.6101C15.8037 15.6863 15.7503 15.7515 15.6818 15.7973C15.6133 15.8432 15.5327 15.8676 15.4502 15.8676Z" fill="#FFFBFB"/>
</svg>
