<svg width="24" height="25" viewBox="0 0 24 25" fill="none" xmlns="http://www.w3.org/2000/svg">
<path d="M5.25 11.2722C5.05109 11.2722 4.86032 11.3512 4.71967 11.4919C4.57902 11.6325 4.5 11.8233 4.5 12.0222V21.0222C4.5 21.2211 4.57902 21.4119 4.71967 21.5525C4.86032 21.6932 5.05109 21.7722 5.25 21.7722H18.75C18.9489 21.7722 19.1397 21.6932 19.2803 21.5525C19.421 21.4119 19.5 21.2211 19.5 21.0222V12.0222C19.5 11.8233 19.421 11.6325 19.2803 11.4919C19.1397 11.3512 18.9489 11.2722 18.75 11.2722H5.25ZM5.25 9.77222H18.75C19.3467 9.77222 19.919 10.0093 20.341 10.4312C20.7629 10.8532 21 11.4255 21 12.0222V21.0222C21 21.619 20.7629 22.1913 20.341 22.6132C19.919 23.0352 19.3467 23.2722 18.75 23.2722H5.25C4.65326 23.2722 4.08097 23.0352 3.65901 22.6132C3.23705 22.1913 3 21.619 3 21.0222V12.0222C3 11.4255 3.23705 10.8532 3.65901 10.4312C4.08097 10.0093 4.65326 9.77222 5.25 9.77222Z" fill="#181716"/>
<path d="M12 13.5222C12.1989 13.5222 12.3897 13.6012 12.5303 13.7419C12.671 13.8825 12.75 14.0733 12.75 14.2722V18.7722C12.75 18.9711 12.671 19.1619 12.5303 19.3025C12.3897 19.4432 12.1989 19.5222 12 19.5222C11.8011 19.5222 11.6103 19.4432 11.4697 19.3025C11.329 19.1619 11.25 18.9711 11.25 18.7722V14.2722C11.25 14.0733 11.329 13.8825 11.4697 13.7419C11.6103 13.6012 11.8011 13.5222 12 13.5222ZM16.5 9.77222V8.27222C16.5 7.07874 16.0259 5.93415 15.182 5.09024C14.3381 4.24632 13.1935 3.77222 12 3.77222C10.8065 3.77222 9.66193 4.24632 8.81802 5.09024C7.97411 5.93415 7.5 7.07874 7.5 8.27222V9.77222H16.5ZM12 2.27222C13.5913 2.27222 15.1174 2.90436 16.2426 4.02958C17.3679 5.15479 18 6.68092 18 8.27222V11.2722H6V8.27222C6 6.68092 6.63214 5.15479 7.75736 4.02958C8.88258 2.90436 10.4087 2.27222 12 2.27222Z" fill="#181716"/>
</svg>
