<svg width="24" height="25" viewBox="0 0 24 25" fill="none" xmlns="http://www.w3.org/2000/svg">
<path fill-rule="evenodd" clip-rule="evenodd" d="M1.75 3.77222C0.783502 3.77222 0 4.55572 0 5.52222V19.5222C0 20.4887 0.783502 21.2722 1.75 21.2722H22.25C23.2165 21.2722 24 20.4887 24 19.5222V5.52222C24 4.55572 23.2165 3.77222 22.25 3.77222H1.75ZM1.5 5.52222C1.5 5.38415 1.61193 5.27222 1.75 5.27222H22.25C22.3881 5.27222 22.5 5.38415 22.5 5.52222V6.37378L12.1399 13.3738C12.0554 13.431 11.9446 13.431 11.86 13.3738L1.5 6.37382V5.52222ZM1.5 8.18413V19.5222C1.5 19.6603 1.61193 19.7722 1.75 19.7722H22.25C22.3881 19.7722 22.5 19.6603 22.5 19.5222V8.18409L12.9797 14.6167C12.3878 15.0167 11.6122 15.0167 11.0202 14.6167L1.5 8.18413Z" fill="#181716"/>
</svg>
