<svg width="29" height="29" viewBox="0 0 29 29" fill="none" xmlns="http://www.w3.org/2000/svg">
<path d="M14.337 24.7638C11.6186 24.7638 8.90032 24.3321 6.32198 23.4688C5.34198 23.1304 4.59532 22.4421 4.26865 21.5438C3.93032 20.6454 4.04698 19.6537 4.58365 18.7671L5.92532 16.5387C6.20532 16.0721 6.46198 15.1388 6.46198 14.5904V11.2187C6.46198 6.87875 9.99698 3.34375 14.337 3.34375C18.677 3.34375 22.212 6.87875 22.212 11.2187V14.5904C22.212 15.1271 22.4686 16.0721 22.7486 16.5504L24.0786 18.7671C24.5803 19.6071 24.6736 20.6221 24.3353 21.5438C23.997 22.4654 23.262 23.1654 22.3403 23.4688C19.7736 24.3321 17.0553 24.7638 14.337 24.7638ZM14.337 5.09375C10.9653 5.09375 8.21198 7.83542 8.21198 11.2187V14.5904C8.21198 15.4421 7.86198 16.7021 7.43032 17.4371L6.08865 19.6654C5.83198 20.0971 5.76198 20.5521 5.91365 20.9371C6.05365 21.3337 6.40365 21.6371 6.88198 21.8004C11.7586 23.4337 16.927 23.4337 21.8036 21.8004C22.2236 21.6604 22.5503 21.3454 22.702 20.9254C22.8536 20.5054 22.8186 20.0504 22.5853 19.6654L21.2437 17.4371C20.8003 16.6787 20.462 15.4304 20.462 14.5787V11.2187C20.462 7.83542 17.7203 5.09375 14.337 5.09375Z" fill="#FBF8EB"/>
<path d="M16.5078 5.4075C16.4262 5.4075 16.3445 5.39583 16.2628 5.3725C15.9245 5.27917 15.5978 5.20917 15.2828 5.1625C14.2912 5.03417 13.3345 5.10417 12.4362 5.3725C12.1095 5.4775 11.7595 5.3725 11.5378 5.1275C11.3162 4.8825 11.2462 4.5325 11.3745 4.2175C11.8528 2.9925 13.0195 2.1875 14.3495 2.1875C15.6795 2.1875 16.8462 2.98083 17.3245 4.2175C17.4412 4.5325 17.3828 4.8825 17.1612 5.1275C16.9862 5.31417 16.7412 5.4075 16.5078 5.4075Z" fill="#FBF8EB"/>
<path d="M14.3379 27.4219C13.1829 27.4219 12.0629 26.9552 11.2462 26.1385C10.4296 25.3219 9.96289 24.2019 9.96289 23.0469H11.7129C11.7129 23.7352 11.9929 24.4119 12.4829 24.9019C12.9729 25.3919 13.6496 25.6719 14.3379 25.6719C15.7846 25.6719 16.9629 24.4935 16.9629 23.0469H18.7129C18.7129 25.4619 16.7529 27.4219 14.3379 27.4219Z" fill="#FBF8EB"/>
</svg>
