<svg width="24" height="22" viewBox="0 0 24 22" fill="none" xmlns="http://www.w3.org/2000/svg">
<path d="M12.6723 0.824326C12.5459 0.568324 12.2852 0.40625 11.9997 0.40625C11.7142 0.40625 11.4535 0.568324 11.3272 0.824326L8.26886 7.02115L1.43026 8.01486C1.14774 8.05591 0.913034 8.25379 0.824815 8.5253C0.736597 8.79681 0.810169 9.09486 1.0146 9.29413L5.96306 14.1177L4.79489 20.9287C4.74663 21.21 4.86229 21.4944 5.09325 21.6622C5.32421 21.83 5.63041 21.8521 5.8831 21.7193L11.9997 18.5036L18.1164 21.7193C18.369 21.8521 18.6752 21.83 18.9062 21.6622C19.1372 21.4944 19.2528 21.21 19.2046 20.9287L18.0364 14.1177L22.9849 9.29413C23.1893 9.09486 23.2629 8.79681 23.1746 8.5253C23.0864 8.25379 22.8517 8.05591 22.5692 8.01486L15.7306 7.02115L12.6723 0.824326Z" fill="#F7D33D"/>
</svg>
